<svg width="26" height="20" viewBox="0 0 26 20" fill="none" xmlns="http://www.w3.org/2000/svg">
<path d="M23.5625 0.5H2.4375C1.06641 0.5 0 1.61719 0 2.9375V17.5625C0 18.9336 1.06641 20 2.4375 20H23.5625C24.8828 20 26 18.9336 26 17.5625V2.9375C26 1.61719 24.8828 0.5 23.5625 0.5ZM23.5625 2.9375V5.01953C22.3945 5.98438 20.5664 7.40625 16.707 10.4531C15.8438 11.1133 14.168 12.7383 13 12.6875C11.7812 12.7383 10.1055 11.1133 9.24219 10.4531C5.38281 7.40625 3.55469 5.98438 2.4375 5.01953V2.9375H23.5625ZM2.4375 17.5625V8.16797C3.55469 9.08203 5.23047 10.4023 7.71875 12.3828C8.83594 13.2461 10.8164 15.1758 13 15.125C15.1328 15.1758 17.0625 13.2461 18.2305 12.3828C20.7188 10.4023 22.3945 9.08203 23.5625 8.16797V17.5625H2.4375Z" fill="currentColor"/>
</svg>
