<svg width="24" height="20" viewBox="0 0 24 20" fill="none" xmlns="http://www.w3.org/2000/svg">
<path d="M24 2.30625C23.1188 2.7 22.167 2.9625 21.1733 3.0795C22.1903 2.46975 22.9688 1.5045 23.3385 0.35625C22.3868 0.91875 21.3323 1.33125 20.2118 1.55175C19.3118 0.5955 18.0323 0 16.6163 0C13.8975 0 11.694 2.2035 11.694 4.92225C11.694 5.30625 11.736 5.68125 11.8208 6.04275C7.72875 5.8365 4.10025 3.87675 1.6725 0.89625C1.25025 1.623 1.00725 2.47125 1.00725 3.37125C1.00725 5.0775 1.87425 6.5865 3.1965 7.4685C2.39025 7.44525 1.63125 7.22025 0.965251 6.85425C0.965251 6.873 0.965251 6.89625 0.965251 6.915C0.965251 9.30075 2.6625 11.2935 4.917 11.7428C4.5045 11.8552 4.06875 11.916 3.61875 11.916C3.3 11.916 2.9955 11.883 2.691 11.8267C3.3195 13.7812 5.13825 15.2063 7.28925 15.249C5.60175 16.5705 3.483 17.3587 1.17225 17.3587C0.774001 17.3587 0.384751 17.3355 -0.00449944 17.2882C2.18025 18.69 4.767 19.5007 7.54725 19.5007C16.6035 19.5007 21.558 11.9963 21.558 5.49C21.558 5.27475 21.5535 5.06325 21.5438 4.8525C22.5045 4.16325 23.3393 3.29625 24 2.307V2.30625Z" fill="currentColor"/>
</svg>
